<?xml version="1.0" encoding="utf-8"?>
<!-- Generator: Adobe Illustrator 15.0.2, SVG Export Plug-In  -->
<!DOCTYPE svg PUBLIC "-//W3C//DTD SVG 1.1//EN" "http://www.w3.org/Graphics/SVG/1.1/DTD/svg11.dtd" [
	<!ENTITY ns_flows "http://ns.adobe.com/Flows/1.0/">
]>
<svg version="1.1"
	 xmlns="http://www.w3.org/2000/svg" xmlns:xlink="http://www.w3.org/1999/xlink" xmlns:a="http://ns.adobe.com/AdobeSVGViewerExtensions/3.0/"
	 x="0px" y="0px" width="144px" height="144px" viewBox="-5 -4 144 144" overflow="visible" enable-background="new -5 -4 144 144"
	 xml:space="preserve">
<defs>
</defs>
<path d="M79.503,76.981c5.828,8.09,5.459,16.169,2.061,25.276c-1.184,3.166,3.871,4.518,5.037,1.392
	c3.845-10.298,3.994-20.172-2.584-29.306C82.065,71.636,77.529,74.242,79.503,76.981L79.503,76.981z"/>
<path d="M88.212,68.562c8.276,11.754,10.054,25.732,2.435,38.299c-1.75,2.891,2.77,5.515,4.514,2.639
	c8.515-14.047,6.879-30.347-2.434-43.576C90.802,63.19,86.268,65.798,88.212,68.562L88.212,68.562z"/>
<path d="M98.665,60.432c11.935,15.968,11.914,34.085,3.228,51.655c-1.488,3.012,3.02,5.657,4.514,2.638
	c9.453-19.124,9.856-39.425-3.229-56.93C101.186,55.128,96.646,57.729,98.665,60.432L98.665,60.432z"/>
<path d="M109.116,52.156c15.041,19.925,14.974,43.024,4.019,64.938c-1.503,3.005,3.006,5.654,4.513,2.638
	c11.724-23.446,12.158-48.784-4.017-70.212C111.627,46.866,107.085,49.466,109.116,52.156L109.116,52.156z"/>
<path fill-rule="evenodd" clip-rule="evenodd" d="M63.909,34.375c-1.94-4.5-0.883-8.543-0.304-13.597
	C64.418,13.712,64.623,6.775,63.627,0H0v137c4.484,0,8.967,0,13.451,0c1.448-8,3.338-14.034,4.833-21.099
	c5.841,3.436,14.81,6.663,23.265,5.919c9.329-0.823,12.187-8.725,14.906-18.394c3.035-2,6.346-3.053,6.144-5.973
	c-0.194-2.805-13.495-4.75-8.511-10.944c2.871-3.172,14.05-2.349,14.354-3.784c1.309-3.929-3.021-5.745-3.023-14.205
	c4.635-4.33,13.941-3.397,14.504-7.554c0.625-4.627-4.594-9.619-7.555-13.6C69.485,43.488,65.514,38.101,63.909,34.375z"/>
</svg>
