<?xml version="1.0" encoding="utf-8"?>
<!-- Generator: Adobe Illustrator 15.0.2, SVG Export Plug-In  -->
<!DOCTYPE svg PUBLIC "-//W3C//DTD SVG 1.1//EN" "http://www.w3.org/Graphics/SVG/1.1/DTD/svg11.dtd" [
	<!ENTITY ns_flows "http://ns.adobe.com/Flows/1.0/">
]>
<svg version="1.1"
	 xmlns="http://www.w3.org/2000/svg" xmlns:xlink="http://www.w3.org/1999/xlink" xmlns:a="http://ns.adobe.com/AdobeSVGViewerExtensions/3.0/"
	 x="0px" y="0px" width="144px" height="144px" viewBox="-4 -5 144 144" overflow="visible" enable-background="new -4 -5 144 144"
	 xml:space="preserve">
<defs>
</defs>
<path fill="#FFFFFF" d="M80.503,75.981c5.828,8.09,5.459,16.169,2.061,25.276c-1.184,3.166,3.871,4.518,5.037,1.392
	c3.845-10.298,3.994-20.172-2.584-29.306C83.065,70.636,78.529,73.242,80.503,75.981L80.503,75.981z"/>
<path fill="#FFFFFF" d="M89.212,67.562c8.276,11.754,10.054,25.732,2.435,38.299c-1.75,2.891,2.77,5.515,4.514,2.639
	c8.515-14.047,6.879-30.347-2.434-43.576C91.802,62.19,87.268,64.798,89.212,67.562L89.212,67.562z"/>
<path fill="#FFFFFF" d="M99.665,59.432c11.935,15.968,11.914,34.085,3.228,51.655c-1.488,3.012,3.02,5.657,4.514,2.638
	c9.453-19.124,9.856-39.425-3.229-56.93C102.186,54.128,97.646,56.729,99.665,59.432L99.665,59.432z"/>
<path fill="#FFFFFF" d="M110.116,51.156c15.041,19.925,14.974,43.024,4.019,64.938c-1.503,3.005,3.006,5.654,4.513,2.638
	c11.724-23.446,12.158-48.784-4.017-70.212C112.627,45.866,108.085,48.466,110.116,51.156L110.116,51.156z"/>
<path fill="#FFFFFF" d="M64.909,33.375c-1.94-4.5-0.883-8.043-0.304-13.097C65.418,13.212,65.623,6,64.627,0H0v137
	c5,0,9.967,0,14.451,0c1.448-8,3.338-14.534,4.833-21.599c5.841,3.436,14.81,6.413,23.265,5.669
	c9.329-0.823,12.187-8.85,14.906-18.519c3.035-2,6.346-3.115,6.144-6.035c-0.194-2.805-13.495-4.781-8.511-10.976
	c2.871-3.172,14.05-2.364,14.354-3.8c1.309-3.929-3.021-5.753-3.023-14.213c4.635-4.33,13.941-3.401,14.504-7.558
	c0.625-4.627-4.594-9.621-7.555-13.602C70.485,42.49,66.514,37.101,64.909,33.375z"/>
</svg>
