<?xml version="1.0" encoding="utf-8"?>
<!-- Generator: Adobe Illustrator 16.0.0, SVG Export Plug-In . SVG Version: 6.00 Build 0)  -->
<!DOCTYPE svg PUBLIC "-//W3C//DTD SVG 1.1//EN" "http://www.w3.org/Graphics/SVG/1.1/DTD/svg11.dtd">
<svg version="1.1" id="Layer_1" xmlns="http://www.w3.org/2000/svg" xmlns:xlink="http://www.w3.org/1999/xlink" x="0px" y="0px"
	 width="64px" height="64px" viewBox="0 0 64 64" enable-background="new 0 0 64 64" xml:space="preserve">
<line fill="none" stroke="#000000" stroke-linecap="round" stroke-miterlimit="10" x1="34.564" y1="13.034" x2="58.938" y2="16.223"/>
<line fill="none" stroke="#000000" stroke-linecap="round" stroke-miterlimit="10" x1="58.938" y1="16.223" x2="58.938" y2="50.733"/>
<line fill="none" stroke="#000000" stroke-linecap="round" stroke-miterlimit="10" x1="12.697" y1="52.956" x2="12.697" y2="56.883"/>
<g id="XMLID_1_">
	<g>
		<polygon points="34.557,13.026 12.697,23.966 12.697,52.956 9.276,54.256 9.276,22.026 		"/>
	</g>
	<g>
		
			<line fill="none" stroke="#000000" stroke-linecap="round" stroke-miterlimit="10" x1="34.557" y1="13.026" x2="9.276" y2="22.026"/>
		
			<line fill="none" stroke="#000000" stroke-linecap="round" stroke-miterlimit="10" x1="9.276" y1="22.026" x2="9.276" y2="54.256"/>
		
			<line fill="none" stroke="#000000" stroke-linecap="round" stroke-miterlimit="10" x1="34.557" y1="13.026" x2="12.697" y2="23.966"/>
		
			<line fill="none" stroke="#000000" stroke-linecap="round" stroke-miterlimit="10" x1="12.697" y1="23.966" x2="12.697" y2="52.956"/>
		
			<line fill="none" stroke="#000000" stroke-linecap="round" stroke-miterlimit="10" x1="9.276" y1="54.256" x2="12.697" y2="52.956"/>
	</g>
</g>
<path fill="none" stroke="#000000" stroke-linecap="round" stroke-miterlimit="10" d="M34.557,13.945
	c0,5.539-9.522,10.021-21.29,10.021"/>
<path fill="none" stroke="#000000" stroke-linecap="round" stroke-miterlimit="10" d="M34.564,44.583
	c0,6.799-9.781,12.3-21.868,12.3"/>
<line fill="none" stroke="#000000" stroke-linecap="round" stroke-miterlimit="10" x1="32" y1="16.223" x2="20.1" y2="22.026"/>
<line fill="none" stroke="#000000" stroke-linecap="round" stroke-miterlimit="10" x1="30.123" y1="18.496" x2="25.453" y2="20.892"/>
<path fill="none" stroke="#000000" stroke-linecap="round" stroke-miterlimit="10" d="M34.564,13.034
	c0,2.077,10.647,3.758,23.805,3.758"/>
<path fill="none" stroke="#000000" stroke-linecap="round" stroke-miterlimit="10" d="M35.128,44.725
	c0,3.636,10.649,6.578,23.811,6.578"/>
<line fill="none" stroke="#000000" stroke-linecap="round" stroke-miterlimit="10" x1="34.564" y1="20.892" x2="34.564" y2="26.131"/>
<line fill="none" stroke="#000000" stroke-linecap="round" stroke-miterlimit="10" x1="34.557" y1="30.231" x2="34.557" y2="40.824"/>
<path fill="none" stroke="#000000" stroke-linecap="round" stroke-miterlimit="10" d="M39.121,23.512c1.252-0.456,4.1,0,4.1,0
	l1.595,1.481l3.189-1.026l2.05,0.185l3.189,0.842"/>
<path fill="none" stroke="#000000" stroke-linecap="round" stroke-miterlimit="10" d="M47.776,30.231"/>
<path fill="none" stroke="#000000" stroke-linecap="round" stroke-miterlimit="10" d="M23.627,28.865"/>
<path fill="none" stroke="#000000" stroke-linecap="round" stroke-miterlimit="10" d="M18.733,30.231"/>
<path fill="none" stroke="#000000" stroke-linecap="round" stroke-miterlimit="10" d="M50.738,34.816"/>
<path fill="none" stroke="#000000" stroke-linecap="round" stroke-miterlimit="10" d="M47.776,36.382"/>
<polyline fill="none" stroke="#000000" stroke-linecap="round" stroke-miterlimit="10" points="39.918,40.368 44.588,40.824 
	46.467,41.279 48.232,40.368 49.485,41.279 51.421,40.368 55.407,41.279 "/>
<path fill="none" stroke="#000000" stroke-linecap="round" stroke-miterlimit="10" d="M47.146,24.151"/>
<polyline fill="none" stroke="#000000" stroke-linecap="round" stroke-miterlimit="10" points="39.289,28.137 43.959,28.593 
	45.838,29.048 47.604,28.137 48.855,29.048 50.791,28.137 54.777,29.048 "/>
<path fill="none" stroke="#000000" stroke-linecap="round" stroke-miterlimit="10" d="M40.086,34.889c1.252-0.455,4.1,0,4.1,0
	l1.594,1.48l3.189-1.025l2.051,0.184l3.189,0.842"/>
<path fill="none" stroke="#000000" stroke-linecap="round" stroke-miterlimit="10" d="M48.111,35.527"/>
</svg>
