<?xml version="1.0" encoding="utf-8"?>
<!-- Generator: Adobe Illustrator 16.0.0, SVG Export Plug-In . SVG Version: 6.00 Build 0)  -->
<!DOCTYPE svg PUBLIC "-//W3C//DTD SVG 1.1//EN" "http://www.w3.org/Graphics/SVG/1.1/DTD/svg11.dtd">
<svg version="1.1" id="Layer_1" xmlns="http://www.w3.org/2000/svg" xmlns:xlink="http://www.w3.org/1999/xlink" x="0px" y="0px"
	 width="64px" height="64px" viewBox="0 0 64 64" enable-background="new 0 0 64 64" xml:space="preserve">
<path fill="none" stroke="#000000" stroke-linecap="round" stroke-miterlimit="2" d="M19.43,17.329c0,1.78-1.443,3.224-3.224,3.224
	h-6.158c-1.78,0-3.224-1.443-3.224-3.224v-5.914c0-1.78,1.443-3.224,3.224-3.224h6.158c1.78,0,3.224,1.443,3.224,3.224V17.329z"/>
<path fill="none" stroke="#000000" stroke-linecap="round" stroke-miterlimit="2" d="M19.43,50.861c0,1.781-1.443,3.224-3.224,3.224
	h-6.158c-1.78,0-3.224-1.442-3.224-3.224v-5.913c0-1.78,1.443-3.224,3.224-3.224h6.158c1.781,0,3.224,1.443,3.224,3.224V50.861z"/>
<path fill="none" stroke="#000000" stroke-linecap="round" stroke-miterlimit="2" d="M38.771,17.238
	c0,1.781-1.443,3.224-3.224,3.224H29.39c-1.78,0-3.224-1.443-3.224-3.224v-5.914c0-1.78,1.443-3.224,3.224-3.224h6.158
	c1.78,0,3.224,1.443,3.224,3.224V17.238z"/>
<path fill="none" stroke="#000000" stroke-linecap="round" stroke-miterlimit="2" d="M38.771,50.771c0,1.78-1.443,3.224-3.224,3.224
	H29.39c-1.78,0-3.224-1.443-3.224-3.224v-5.913c0-1.781,1.443-3.224,3.224-3.224h6.158c1.78,0,3.224,1.442,3.224,3.224V50.771z"/>
<path fill="none" stroke="#000000" stroke-linecap="round" stroke-miterlimit="2" d="M38.771,33.908
	c0,1.782-1.443,3.224-3.224,3.224H29.39c-1.78,0-3.224-1.441-3.224-3.224v-5.912c0-1.782,1.443-3.225,3.224-3.225h6.158
	c1.78,0,3.224,1.443,3.224,3.225V33.908z"/>
<path fill="none" stroke="#000000" stroke-linecap="round" stroke-miterlimit="2" d="M58.112,17.238
	c0,1.781-1.442,3.224-3.224,3.224H48.73c-1.78,0-3.224-1.443-3.224-3.224v-5.914c0-1.78,1.443-3.224,3.224-3.224h6.158
	c1.781,0,3.224,1.443,3.224,3.224V17.238z"/>
<path fill="none" stroke="#000000" stroke-linecap="round" stroke-miterlimit="2" d="M58.112,50.771c0,1.78-1.442,3.224-3.224,3.224
	H48.73c-1.78,0-3.224-1.443-3.224-3.224v-5.913c0-1.781,1.443-3.224,3.224-3.224h6.158c1.781,0,3.224,1.442,3.224,3.224V50.771z"/>
<path fill="none" stroke="#000000" stroke-linecap="round" stroke-miterlimit="2" d="M58.112,33.908
	c0,1.782-1.442,3.224-3.224,3.224H48.73c-1.78,0-3.224-1.441-3.224-3.224v-5.912c0-1.782,1.443-3.225,3.224-3.225h6.158
	c1.781,0,3.224,1.443,3.224,3.225V33.908z"/>
<g id="XMLID_3_">
	<g>
		<path d="M19.43,28.09v0.77l-9.81,1.6l4.22-5.6h2.37C17.99,24.86,19.43,26.31,19.43,28.09z"/>
	</g>
	<g>
		<path fill="none" stroke="#000000" stroke-linecap="round" stroke-miterlimit="2" d="M19.43,28.86V34c0,1.78-1.44,3.22-3.22,3.22
			h-6.16c-1.78,0-3.23-1.439-3.23-3.22v-5.91c0-1.78,1.45-3.23,3.23-3.23h3.79h2.37c1.78,0,3.22,1.45,3.22,3.23V28.86z"/>
		<line fill="none" stroke="#000000" stroke-linecap="round" stroke-miterlimit="2" x1="13.84" y1="24.86" x2="9.62" y2="30.46"/>
		<line fill="none" stroke="#000000" stroke-linecap="round" stroke-miterlimit="2" x1="9.62" y1="30.46" x2="19.43" y2="28.86"/>
	</g>
</g>
<g id="XMLID_2_">
	<g>
		<path d="M31.77,30.46c1.86,0,3.36,1.5,3.36,3.36c0,1.85-1.5,3.359-3.36,3.359c-1.85,0-3.36-1.51-3.36-3.359
			C28.41,31.96,29.92,30.46,31.77,30.46z"/>
	</g>
	<g>
		<path fill="none" stroke="#000000" stroke-linecap="round" stroke-miterlimit="2" d="M35.13,33.82c0,1.85-1.5,3.359-3.36,3.359
			c-1.85,0-3.36-1.51-3.36-3.359c0-1.86,1.51-3.36,3.36-3.36C33.63,30.46,35.13,31.96,35.13,33.82z"/>
	</g>
</g>
<g id="XMLID_4_">
	<g>
		<path d="M53.46,11.32c2.57,0,4.65,0.67,4.65,1.48c0,0.82-2.08,1.48-4.65,1.48s-4.66-0.66-4.66-1.48
			C48.8,11.99,50.89,11.32,53.46,11.32z"/>
	</g>
	<g>
		<path fill="none" stroke="#000000" stroke-linecap="round" stroke-miterlimit="2" d="M58.11,12.8c0-0.81-2.08-1.48-4.65-1.48
			s-4.66,0.67-4.66,1.48c0,0.82,2.09,1.48,4.66,1.48S58.11,13.62,58.11,12.8z"/>
	</g>
</g>
<g id="XMLID_1_">
	<g>
		<polygon points="35.36,10.46 36.39,15.2 32.8,18.45 28.19,16.97 27.16,12.23 30.75,8.98 		"/>
	</g>
	<g>
		<polygon fill="none" stroke="#000000" stroke-linecap="round" stroke-miterlimit="2" points="36.39,15.2 32.8,18.45 28.19,16.97 
			27.16,12.23 30.75,8.98 35.36,10.46 		"/>
	</g>
</g>
<line fill="none" stroke="#000000" stroke-linecap="round" stroke-miterlimit="2" x1="53.455" y1="24.86" x2="45.507" y2="33.077"/>
<line fill="none" stroke="#000000" stroke-linecap="round" stroke-miterlimit="2" x1="57.686" y1="30.46" x2="50.055" y2="37.132"/>
<line fill="none" stroke="#000000" stroke-linecap="round" stroke-miterlimit="2" x1="56.827" y1="25.426" x2="53.87" y2="33.077"/>
<line fill="none" stroke="#000000" stroke-linecap="round" stroke-miterlimit="2" x1="51.81" y1="48.339" x2="51.81" y2="47.904"/>
<g id="XMLID_5_">
	<g>
		<polygon points="51.116,43.568 56.896,50.519 47.996,52.059 		"/>
	</g>
	<g>
		<polygon fill="none" stroke="#000000" stroke-linecap="square" stroke-linejoin="round" stroke-miterlimit="2" points="
			56.896,50.519 47.996,52.059 51.116,43.568 		"/>
	</g>
</g>
<line fill="none" stroke="#000000" stroke-linecap="square" stroke-linejoin="round" stroke-miterlimit="2" x1="9.62" y1="45.72" x2="16.683" y2="45.72"/>
<line fill="none" stroke="#000000" stroke-linecap="square" stroke-linejoin="round" stroke-miterlimit="2" x1="9.62" y1="48.339" x2="16.114" y2="48.339"/>
<line fill="none" stroke="#000000" stroke-linecap="square" stroke-linejoin="round" stroke-miterlimit="2" x1="9.62" y1="51.301" x2="16.114" y2="51.301"/>
<path fill="none" stroke="#000000" stroke-linecap="square" stroke-linejoin="round" stroke-miterlimit="2" d="M17.139,15.45
	c0,1.657-1.343,3-3,3H12.62c-1.657,0-3-1.343-3-3v-1.13c0-1.657,1.343-3,3-3h1.519c1.657,0,3,1.343,3,3V15.45z"/>
<path fill="none" stroke="#000000" stroke-linecap="square" stroke-linejoin="round" stroke-miterlimit="2" d="M16.114,13.995
	c0,1.229-1.343,2.226-3,2.226h-2.086c-1.657,0-3-0.997-3-2.226v-3.577c0-1.229,1.343-2.226,3-2.226h2.086c1.657,0,3,0.997,3,2.226
	V13.995z"/>
</svg>
